<!DOCTYPE svg PUBLIC "-//W3C//DTD SVG 1.1//EN" "http://www.w3.org/Graphics/SVG/1.1/DTD/svg11.dtd">
<!-- Uploaded to: SVG Repo, www.svgrepo.com, Transformed by: SVG Repo Mixer Tools -->
<svg fill="#479e98ff" height="800px" width="800px" version="1.1" id="Layer_1" xmlns="http://www.w3.org/2000/svg" xmlns:xlink="http://www.w3.org/1999/xlink" viewBox="0 0 512 512" xml:space="preserve" stroke="#479e98ff">
<g id="SVGRepo_bgCarrier" stroke-width="0"/>
<g id="SVGRepo_iconCarrier"> <g> <g> <path d="M495.765,405.028L351.67,260.933c-6.974-6.975-18.283-6.975-25.258,0l-20.138,20.138l-28.831-28.831 c48.443-61.011,44.484-150.258-11.9-206.641c-60.797-60.797-159.197-60.802-219.999,0c-60.654,60.653-60.654,159.346,0,219.999 c56.288,56.289,145.508,60.439,206.641,11.9l28.831,28.831l-20.138,20.138c-6.975,6.975-6.975,18.283,0,25.258l144.094,144.094 c21.576,21.576,56.682,21.573,78.255,0l12.537-12.535C517.34,461.707,517.338,426.603,495.765,405.028z M240.285,240.341 c-46.726,46.725-122.755,46.726-169.483,0c-46.727-46.727-46.727-122.756,0-169.483c46.727-46.726,122.755-46.727,169.483,0 C287.012,117.584,287.012,193.614,240.285,240.341z M470.507,458.025l-12.535,12.535c-7.648,7.646-20.091,7.648-27.739,0 L298.766,339.095l40.275-40.275l131.466,131.465C478.155,437.933,478.155,450.377,470.507,458.025z"/> </g> </g> <g> <g> <path d="M96.781,147.642c-9.864,0-17.86,7.997-17.86,17.86v21.504c0,9.864,7.997,17.86,17.86,17.86 c9.864,0,17.86-7.997,17.86-17.86v-21.504C114.641,155.638,106.645,147.642,96.781,147.642z"/> </g> </g> <g> <g> <path d="M155.543,120.101c-9.864,0-17.86,7.997-17.86,17.86v49.044c0,9.864,7.997,17.86,17.86,17.86 c9.864,0,17.86-7.997,17.86-17.86v-49.044C173.403,128.098,165.407,120.101,155.543,120.101z"/> </g> </g> <g> <g> <path d="M214.307,106.33c-9.864,0-17.86,7.997-17.86,17.86v62.815c0,9.864,7.997,17.86,17.86,17.86 c9.864,0,17.86-7.997,17.86-17.86V124.19C232.167,114.327,224.17,106.33,214.307,106.33z"/> </g> </g> </g>
</svg>