<!DOCTYPE svg PUBLIC "-//W3C//DTD SVG 1.1//EN" "http://www.w3.org/Graphics/SVG/1.1/DTD/svg11.dtd">
<!-- Uploaded to: SVG Repo, www.svgrepo.com, Transformed by: SVG Repo Mixer Tools -->
<svg width="800px" height="800px" viewBox="0 0 32 32" fill="none" xmlns="http://www.w3.org/2000/svg" stroke="#479e98ff" transform="matrix(-1, 0, 0, 1, 0, 0)">
<g id="SVGRepo_bgCarrier" stroke-width="0"/>
<g id="SVGRepo_iconCarrier"> <g clip-path="url(#clip0_901_1592)"> <path d="M16 3.0001C23.18 3.0001 29 8.8201 29 16.0001C29 23.1801 23.18 29.0001 16 29.0001C8.82 29.0001 3 23.1801 3 16.0001C3 8.8201 8.82 3.0001 16 3.0001ZM16 3.0001V1.0001M9.3115 27.1476L6.9995 31.0006M29.7686 7.879C30.5256 7.15 30.9996 6.133 30.9996 5C30.9996 2.79 29.2096 1 26.9996 1C25.8676 1 24.8496 1.475 24.1216 2.232M7.8789 2.2315C7.1499 1.4745 6.1329 1.0005 4.9999 1.0005C2.7899 1.0005 0.999901 2.7905 0.999901 5.0005C0.999901 6.1325 1.4749 7.1505 2.2319 7.8785M22 12.0001L14 20.0001L10 16.0001M25 31.0001L22.689 27.1481" stroke="#479e98ff" stroke-width="1.888" stroke-linecap="round" stroke-linejoin="round"/> </g> <defs> <clipPath id="clip0_901_1592"> <rect width="32" height="32" fill="white"/> </clipPath> </defs> </g>
</svg>