<?xml version="1.0" encoding="iso-8859-1"?>
<!-- Uploaded to: SVG Repo, www.svgrepo.com, Generator: SVG Repo Mixer Tools -->
<svg height="800px" width="800px" version="1.1" id="Capa_1" xmlns="http://www.w3.org/2000/svg" xmlns:xlink="http://www.w3.org/1999/xlink" 
	 viewBox="0 0 447.112 447.112" xml:space="preserve">
<g>
	<g id="Guides_For_Artboard_41_">
	</g>
	<g id="Artwork_40_">
	</g>
	<g id="Layer_2_40_">
		<g>
			<path style="fill:none;" d="M167.932,262.919h110.035c0.396,0,0.786,0.019,1.174,0.043c5.319-10.024,8.695-20.932,9.829-32.358
				H158.135C159.254,242.005,162.619,252.9,167.932,262.919z"/>
			<path style="fill:none;" d="M223.125,310.308c0.146,0.058,0.286,0.122,0.432,0.18c0.146-0.058,0.286-0.122,0.432-0.18
				c16.401-6.46,30.296-15.942,41.012-27.516h-82.896C192.821,294.36,206.719,303.846,223.125,310.308z"/>
			<path style="fill:none;" d="M168.521,181.512c-5.161,9.433-8.581,19.67-10.021,30.399h130.125
				c-1.423-10.672-4.813-20.868-9.94-30.271H170.596C169.888,181.641,169.199,181.589,168.521,181.512z"/>
			<path style="fill:none;" d="M182.984,161.768h81.155c-10.594-11.146-24.187-20.294-40.15-26.581
				c-0.146-0.058-0.286-0.122-0.432-0.18c-0.146,0.058-0.286,0.122-0.432,0.18C207.166,141.473,193.577,150.617,182.984,161.768z"/>
			<path style="fill:#5A9794;" d="M166.129,181.512c0.71,0.077,1.431,0.129,2.171,0.129h113.135
				c-4.068-7.127-9.179-13.796-15.225-19.873h-84.943C175.264,167.805,170.184,174.431,166.129,181.512z"/>
			<path style="fill:#5A9794;" d="M165.513,262.919c3.947,7.113,8.928,13.782,14.833,19.873h86.766
				c5.888-6.077,10.857-12.729,14.8-19.829c-0.406-0.024-0.813-0.043-1.229-0.043L165.513,262.919L165.513,262.919z"/>
			<path style="fill:#5A9794;" d="M154.836,221.944v1.748c0.044,2.322,0.187,4.627,0.421,6.912h136.942
				c0.243-2.331,0.387-4.684,0.432-7.054l-0.001-1.748c-0.063-3.336-0.336-6.634-0.791-9.891H155.641
				C155.176,215.213,154.9,218.559,154.836,221.944z"/>
			<path style="fill:#62A5A2;" d="M249.554,323.992c42.14-20.807,68.264-58.249,69.024-100.299l-0.001-2.032
				c-0.758-41.922-26.885-79.355-69.028-100.16c16.165-10.693,29.187-24.385,38.309-40.507
				c12.432-21.971,16.798-47.44,12.296-71.714c-1.09-5.87-8.462-9.979-16.437-9.181c-7.989,0.799-13.582,6.208-12.494,12.078
				c7.205,38.842-12.068,76.931-47.667,97.267c-35.598-20.336-54.871-58.425-47.666-97.267c1.088-5.87-4.505-11.279-12.494-12.078
				c-7.982-0.796-15.347,3.311-16.437,9.181c-4.501,24.274-0.136,49.743,12.296,71.714c9.123,16.123,22.144,29.814,38.309,40.508
				c-42.144,20.806-68.27,58.25-69.03,100.302l0.001,2.033c0.758,41.92,26.883,79.351,69.022,100.157
				c-16.441,10.874-29.618,24.847-38.761,41.328c-12.397,22.347-16.479,48.146-11.495,72.647c1.082,5.322,7.31,9.143,14.419,9.143
				c0.718,0,1.445-0.039,2.176-0.12c7.975-0.875,13.472-6.335,12.28-12.196c-8.021-39.436,11.161-78.133,47.378-98.754
				c36.217,20.621,55.399,59.318,47.378,98.754c-1.193,5.861,4.306,11.321,12.28,12.196c0.731,0.081,1.458,0.12,2.176,0.12
				c7.107,0,13.337-3.821,14.419-9.143c4.984-24.5,0.902-50.3-11.495-72.647C279.172,348.838,265.995,334.866,249.554,323.992z
				 M223.125,310.308c-16.406-6.461-30.304-15.948-41.021-27.516c-5.643-6.091-10.4-12.759-14.172-19.873
				c-5.313-10.02-8.678-20.915-9.797-32.314c-0.224-2.285-0.361-4.59-0.403-6.912v-1.748c0.061-3.385,0.325-6.731,0.769-10.033
				c1.44-10.729,4.859-20.967,10.021-30.399c3.875-7.081,8.728-13.707,14.463-19.744c10.593-11.151,24.183-20.295,40.141-26.581
				c0.146-0.058,0.286-0.122,0.432-0.18c0.146,0.058,0.286,0.122,0.432,0.18c15.963,6.287,29.556,15.435,40.15,26.581
				c5.776,6.076,10.659,12.746,14.546,19.873c5.128,9.402,8.518,19.599,9.94,30.271c0.435,3.257,0.695,6.555,0.755,9.891
				l0.001,1.748c-0.043,2.371-0.181,4.723-0.413,7.054c-1.133,11.426-4.509,22.333-9.829,32.358
				c-3.767,7.1-8.515,13.752-14.14,19.829c-10.716,11.574-24.61,21.056-41.012,27.516c-0.146,0.058-0.286,0.122-0.432,0.18
				C223.411,310.429,223.271,310.365,223.125,310.308z"/>
		</g>
	</g>
</g>
</svg>